<svg class="svg-icon" style="width: 1em; height: 1em;vertical-align: middle;fill: currentColor;overflow: hidden;" viewBox="0 0 1024 1024" version="1.1" xmlns="http://www.w3.org/2000/svg"><path d="M148.567863 148.567863c-198.090484 198.090484-198.090484 523.981279 0 722.071763 198.090484 198.090484 523.981279 198.090484 722.071763 0 198.090484-198.090484 198.090484-523.981279 0-722.071763C672.549142-49.522621 353.048362-49.522621 148.567863 148.567863L148.567863 148.567863zM825.909516 825.909516c-178.920437 178.920437-453.691108 178.920437-632.611544 0-178.920437-178.920437-178.920437-453.691108 0-632.611544 178.920437-178.920437 453.691108-178.920437 632.611544 0C1004.829953 372.218409 1004.829953 653.379095 825.909516 825.909516L825.909516 825.909516zM544.74883 480.848674l0-255.600624c0-19.170047-12.780031-31.950078-31.950078-31.950078-19.170047 0-31.950078 12.780031-31.950078 31.950078l0 255.600624-255.600624 0C212.468019 480.848674 199.687988 493.628705 199.687988 512.798752c0 19.170047 12.780031 31.950078 31.950078 31.950078l255.600624 0 0 255.600624c0 19.170047 12.780031 31.950078 31.950078 31.950078 19.170047 0 31.950078-12.780031 31.950078-31.950078l0-255.600624 255.600624 0c19.170047 0 31.950078-12.780031 31.950078-31.950078 0-19.170047-12.780031-31.950078-31.950078-31.950078L544.74883 480.848674 544.74883 480.848674zM544.74883 480.848674"  /></svg>