<svg class="svg-icon" style="width: 1em; height: 1em;vertical-align: middle;fill: currentColor;overflow: hidden;" viewBox="0 0 1024 1024" version="1.1" xmlns="http://www.w3.org/2000/svg"><path d="M932.289764 218.956827 827.666938 218.956827c-14.145162 0-25.611308-11.467169-25.611308-25.611308s11.466146-25.611308 25.611308-25.611308l104.621802 0c14.145162 0 25.611308 11.467169 25.611308 25.611308S946.434925 218.956827 932.289764 218.956827z"  /><path d="M198.890304 218.956827 93.177658 218.956827c-14.145162 0-25.611308-11.467169-25.611308-25.611308s11.467169-25.611308 25.611308-25.611308l105.712647 0c14.145162 0 25.611308 11.467169 25.611308 25.611308S213.035466 218.956827 198.890304 218.956827z"  /><path d="M777.8176 956.916139l-529.540492 0c-13.58132 0-24.800849-10.600429-25.570375-24.160259l-41.874713-737.959312c-0.399089-7.033184 2.116197-13.921058 6.954389-19.040658 4.838192-5.119601 11.571546-8.021697 18.615986-8.021697l612.633978 0c7.040347 0 13.770632 2.898003 18.608823 8.013511s7.355525 11.997242 6.963599 19.026332l-41.21775 737.959312C802.631752 946.301384 791.407106 956.916139 777.8176 956.916139zM272.476253 905.693524l481.119689 0 38.356586-686.736697L233.50773 218.956827 272.476253 905.693524z"  /><path d="M644.351865 211.7988c-14.145162 0-25.611308-11.467169-25.611308-25.611308L618.740558 117.806079 406.751423 117.806079l0 68.381413c0 14.145162-11.467169 25.611308-25.611308 25.611308s-25.611308-11.467169-25.611308-25.611308L355.528807 92.194772c0-14.145162 11.467169-25.611308 25.611308-25.611308l263.21175 0c14.145162 0 25.611308 11.467169 25.611308 25.611308l0 93.992721C669.963173 200.332654 658.497027 211.7988 644.351865 211.7988z"  /><path d="M374.232798 848.52857c-13.481036 0-24.774243-10.532891-25.547863-24.161283l-29.41903-518.424316c-0.801249-14.122649 9.997702-26.220175 24.119327-27.021423 14.122649-0.798179 26.220175 9.997702 27.021423 24.119327l29.41903 518.424316c0.801249 14.122649-9.997702 26.220175-24.119327 27.021423C375.213126 848.515267 374.721939 848.52857 374.232798 848.52857z"  /><path d="M650.22155 848.52857c-0.490164 0-0.980327-0.014326-1.474584-0.041956-14.122649-0.802272-24.921599-12.900821-24.118304-27.022447l29.445636-518.42534c0.802272-14.122649 12.910031-24.917506 27.022447-24.118304 14.122649 0.802272 24.921599 12.900821 24.118304 27.02347L675.769412 824.36831C674.99477 837.995679 663.701562 848.52857 650.22155 848.52857z"  /><path d="M512.745479 848.527546c-14.144138 0-25.611308-11.466146-25.611308-25.611308L487.134171 304.491922c0-14.145162 11.467169-25.611308 25.611308-25.611308 14.145162 0 25.611308 11.467169 25.611308 25.611308l0 518.424316C538.357809 837.0614 526.891663 848.527546 512.745479 848.527546z"  /></svg>