<svg class="svg-icon" style="width: 1em; height: 1em;vertical-align: middle;fill: currentColor;overflow: hidden;" viewBox="0 0 1024 1024" version="1.1" xmlns="http://www.w3.org/2000/svg"><path d="M115.2 115.2 512 115.2l0 148.8c-1.152 59.552 37.408 99.952 99.2 99.2l148.8 0 0 198.4 99.2 0L859.2 325.984 534.896 16 48.432 16.032C30.512 16.032 16 29.904 16 47.024c0 0 0 720.8 0 913.872C16 990.752 65.6 1008 65.6 1008l248 0 0-99.2L115.2 908.8 115.2 115.2zM660.8 809.6c-13.712-15.84 22.848-76.384 0-76.384-42.944 0-76.752 34.464-76.752 76.384s34.72 76.384 76.752 76.384c42.944 0 76.752-34.464 76.752-76.384C738.464 790.032 672.672 823.568 660.8 809.6zM660.8 611.2c-227.504 0-347.2 171.392-347.2 198.4 0 27.008 119.696 198.4 347.2 198.4C888.304 1008 1008 836.608 1008 809.6 1008 782.592 888.304 611.2 660.8 611.2zM660.8 962.352c-84.976 0-154.416-68.928-154.416-152.752s69.44-152.752 154.416-152.752 154.416 68.928 154.416 152.752C815.216 894.368 745.776 962.352 660.8 962.352z"  /></svg>