<?xml version="1.0" encoding="iso-8859-1"?>
<!-- Uploaded to: SVG Repo, www.svgrepo.com, Generator: SVG Repo Mixer Tools -->
<svg height="800px" width="800px" version="1.1" id="Layer_1" xmlns="http://www.w3.org/2000/svg" xmlns:xlink="http://www.w3.org/1999/xlink" 
	 viewBox="0 0 512 512" xml:space="preserve">
<path style="fill:#FFFFFF;" d="M456.533,384c0,61.184-49.749,110.933-110.933,110.933S234.667,445.184,234.667,384
	S284.416,273.067,345.6,273.067S456.533,322.816,456.533,384z"/>
<path style="fill:#F0F0F0;" d="M345.6,273.067c-24.567,0-47.215,8.115-65.613,21.683c9.993-2.961,20.54-4.617,31.479-4.617
	c61.184,0,110.933,49.749,110.933,110.933c0,36.617-17.894,69.043-45.321,89.25c45.884-13.602,79.454-56.073,79.454-106.317
	C456.533,322.816,406.784,273.067,345.6,273.067z"/>
<path d="M351.633,318.234c-3.337-3.337-8.73-3.337-12.066,0l-34.133,34.133c-3.337,3.337-3.337,8.73,0,12.066
	c3.337,3.337,8.73,3.337,12.066,0l19.567-19.567v98.867c0,4.71,3.823,8.533,8.533,8.533c4.71,0,8.533-3.823,8.533-8.533v-98.867
	l19.567,19.567c1.664,1.664,3.849,2.5,6.033,2.5c2.185,0,4.369-0.836,6.033-2.5c3.337-3.337,3.337-8.73,0-12.066L351.633,318.234z"
	/>
<path d="M345.6,256c-70.579,0-128,57.421-128,128s57.421,128,128,128s128-57.421,128-128S416.179,256,345.6,256z M345.6,494.933
	c-61.167,0-110.933-49.766-110.933-110.933S284.433,273.067,345.6,273.067S456.533,322.833,456.533,384
	S406.767,494.933,345.6,494.933z"/>
<polygon style="fill:#7E939E;" points="367.701,136.533 260.267,136.533 260.267,29.099 "/>
<path style="fill:#AFAFAF;" d="M337.067,153.6v69.717c-59.136,4.181-106.411,52.053-109.653,111.531
	c-6.315,15.104-9.813,31.744-9.813,49.152c0,1.707,0,3.413,0.085,5.12c1.365,34.987,16.981,66.475,41.045,88.747h-24.064
	c0-4.693-3.84-8.533-8.533-8.533H55.467V409.6c0-4.693-3.84-8.533-8.533-8.533V384h0.085c4.693,0,8.448-3.84,8.448-8.533
	s-3.84-8.533-8.533-8.533v-17.067c4.693,0,8.533-3.84,8.533-8.533V17.067H243.2v128c0,4.693,3.84,8.533,8.533,8.533H337.067z"/>
<path style="fill:#7E939E;" d="M379.733,230.4v-2.304v-18.944V153.6h-42.667v51.456v18.261
	c-59.136,4.181-106.411,52.053-109.653,111.531C246.784,288.597,292.437,256,345.6,256c15.019,0,29.355,2.56,42.667,7.339v-24.405
	C383.573,238.933,379.733,235.093,379.733,230.4z"/>
<path d="M226.133,469.333H55.467V409.6c0-4.71-3.823-8.533-8.533-8.533S38.4,404.89,38.4,409.6v68.267
	c0,4.71,3.823,8.533,8.533,8.533h179.2c4.71,0,8.533-3.823,8.533-8.533S230.844,469.333,226.133,469.333z"/>
<path d="M46.933,384h0.085c4.71,0,8.491-3.823,8.491-8.533c0-4.71-3.866-8.533-8.576-8.533s-8.533,3.823-8.533,8.533
	C38.4,380.177,42.223,384,46.933,384z"/>
<path d="M46.933,349.867c4.71,0,8.533-3.823,8.533-8.533V17.067H243.2v128c0,4.71,3.823,8.533,8.533,8.533h128v76.8
	c0,4.71,3.823,8.533,8.533,8.533s8.533-3.823,8.533-8.533v-85.333c0-2.261-0.896-4.437-2.5-6.033L257.766,2.5
	c-1.596-1.604-3.772-2.5-6.033-2.5h-204.8C42.223,0,38.4,3.823,38.4,8.533v332.8C38.4,346.044,42.223,349.867,46.933,349.867z
	 M260.267,29.133l107.401,107.401H260.267V29.133z"/>
</svg>