<svg class="svg-icon" style="width: 1em; height: 1em;vertical-align: middle;fill: currentColor;overflow: hidden;" viewBox="0 0 1024 1024" version="1.1" xmlns="http://www.w3.org/2000/svg"><path d="M921.764 518.884L508.91 132.866 96.056 517.75c-8.077 7.53-8.527 20.193-0.979 28.261 7.54 8.063 20.218 8.518 28.289 0.971L508.88 187.603l385.531 360.473a19.967 19.967 0 0 0 13.678 5.401c5.335 0 10.673-2.119 14.61-6.336 7.555-8.063 7.139-20.714-0.935-28.256z m0 0z m-125.983 7.929c-11.05 0-20.015 8.959-20.015 19.995v306.597H615.643V640.121H402.148v213.284H242.03V546.808c0-11.036-8.955-19.995-20.014-19.995-11.065 0-20.018 8.959-20.018 19.995v346.586h240.183V680.111h133.434v213.283h240.177V546.808c0.001-11.036-8.965-19.995-20.011-19.995z m0 0zM655.677 240.214h120.089v106.64c0 11.053 8.965 20 20.015 20 11.047 0 20.012-8.947 20.012-20V200.225H655.676c-11.053 0-20.018 8.942-20.018 19.995-0.001 11.049 8.965 19.995 20.018 19.995z m0 0z"  /></svg>