<svg class="svg-icon" style="width: 1em; height: 1em;vertical-align: middle;fill: currentColor;overflow: hidden;" viewBox="0 0 1024 1024" version="1.1" xmlns="http://www.w3.org/2000/svg"><path d="M706.56 766.976V931.84c0 10.24-7.168 18.432-17.408 20.48-95.232 13.312-194.56 20.48-294.912 20.48S194.56 965.632 99.328 952.32c-9.216-1.024-16.384-8.192-17.408-17.408-20.48-133.12-30.72-275.456-30.72-422.912S61.44 222.208 81.92 89.088c2.048-9.216 8.192-16.384 17.408-17.408 95.232-13.312 194.56-20.48 294.912-20.48s199.68 7.168 294.912 20.48c10.24 1.024 17.408 10.24 17.408 20.48v164.864c0 11.264-9.216 20.48-20.48 20.48s-20.48-9.216-20.48-20.48V109.568C577.536 98.304 486.4 92.16 394.24 92.16c-93.184 0-185.344 6.144-273.408 18.432C101.376 237.568 92.16 372.736 92.16 512s9.216 274.432 28.672 401.408c88.064 12.288 180.224 18.432 273.408 18.432 92.16 0 183.296-6.144 271.36-17.408V766.976c0-11.264 9.216-20.48 20.48-20.48s20.48 9.216 20.48 20.48zM972.8 501.76c-41.984-55.296-69.632-90.112-91.136-110.592-8.192-8.192-20.48-8.192-28.672 0s-8.192 20.48 0 28.672c14.336 14.336 33.792 37.888 60.416 71.68H430.08c-11.264 0-20.48 9.216-20.48 20.48s9.216 20.48 20.48 20.48h487.424c-24.576 32.768-47.104 58.368-64.512 76.8-8.192 8.192-8.192 20.48 0 28.672 4.096 4.096 9.216 6.144 14.336 6.144s10.24-2.048 14.336-6.144c24.576-24.576 55.296-62.464 91.136-111.616 5.12-7.168 5.12-17.408 0-24.576z"  /></svg>