<svg class="svg-icon" style="width: 1em;height: 1em;vertical-align: middle;fill: currentColor;overflow: hidden;" viewBox="0 0 1024 1024" version="1.1" xmlns="http://www.w3.org/2000/svg"><path d="M400 928C338.144 928 288 892.16 288 848s50.144-80 112-80 112 35.84 112 80-50.144 80-112 80zM752 896c-61.856 0-112-35.84-112-80s50.144-80 112-80 112 35.84 112 80-50.144 80-112 80z" fill="#4FCAC3" /><path d="M923.008 449.984l-94.4 377.664 31.04 7.744 105.344-421.376L579.2 449.088l-102.624 410.56 31.04 7.744 97.12-388.48z" fill="#4FCAC3" /><path d="M570.112 573.92l352-32-2.88-31.872-352 32z" fill="#4FCAC3" /><path d="M364.8 412.672a96.128 96.128 0 0 1 28.224 132.8l-121.984 187.84-187.84-121.984a96.064 96.064 0 0 1-28.256-132.8 96.128 96.128 0 0 1 132.8-28.224l26.848 17.44 17.44-26.848a96.064 96.064 0 0 1 132.8-28.224zM803.904 73.408a76.608 76.608 0 0 1 108.576-1.92c30.528 29.44 31.264 78.176 1.92 108.608l-124.48 128.896-128.928-124.48a76.608 76.608 0 0 1-1.888-108.608 76.896 76.896 0 0 1 108.608-1.888l18.4 17.792 17.792-18.4z" fill="#FF9DAC" /><path d="M345.92 118.912a67.04 67.04 0 0 1 87.488-37.12 67.296 67.296 0 0 1 37.12 87.488L411.84 314.656 266.432 255.904a67.04 67.04 0 0 1-37.12-87.488 67.296 67.296 0 0 1 87.456-37.12l20.8 8.384 8.352-20.768z" fill="#F83B57" /></svg>