<svg class="svg-icon" style="width: 1em; height: 1em;vertical-align: middle;fill: currentColor;overflow: hidden;" viewBox="0 0 1024 1024" version="1.1" xmlns="http://www.w3.org/2000/svg"><path d="M656 240V16H144v992h736V240z" fill="#EDF2F9" /><path d="M656 16v224h224z" fill="#FFFFFF" /><path d="M512 400l-112 112h80v208h64V512h80z" fill="#C2CDDC" /><path d="M895.904 239.824a15.536 15.536 0 0 0-4.464-10.48L666.656 4.56a15.376 15.376 0 0 0-10.336-4.432L656 0H160a32 32 0 0 0-32 32v960a32 32 0 0 0 32 32h704a32 32 0 0 0 32-32V240.432 240l-0.096-0.176zM672 54.096L841.904 224H672V54.096zM864 992H160V32h480v224h224v736zM385.248 518.224c0.064 0.128 0.176 0.208 0.224 0.336 0.784 1.744 1.776 3.44 3.216 4.88a15.888 15.888 0 0 0 12 4.576H464v192a16 16 0 0 0 16 16h64a16 16 0 0 0 16-16V528h63.312a15.888 15.888 0 0 0 12-4.576 15.856 15.856 0 0 0 3.216-4.88c0.048-0.128 0.16-0.208 0.224-0.336a16.32 16.32 0 0 0 1.104-5.52c0.016-0.24 0.144-0.432 0.144-0.688v-0.016a16.56 16.56 0 0 0-1.248-6.176c-0.48-1.136-1.312-2.048-2.032-3.024-0.528-0.768-0.864-1.648-1.536-2.32l-111.664-111.696c-0.048-0.048-0.048-0.112-0.096-0.16a15.92 15.92 0 0 0-11.024-4.608c-0.144 0-0.272-0.08-0.4-0.08s-0.272 0.08-0.4 0.08a15.92 15.92 0 0 0-11.024 4.608c-0.048 0.048-0.048 0.112-0.096 0.16l-111.664 111.696c-0.672 0.672-0.992 1.552-1.536 2.32-0.72 0.992-1.552 1.888-2.032 3.024a16.56 16.56 0 0 0-1.248 6.176V512c0 0.256 0.128 0.448 0.144 0.704 0.08 1.888 0.384 3.744 1.104 5.52zM512 422.88L585.072 496H544a16 16 0 0 0-16 16v192h-32V512a16 16 0 0 0-16-16h-41.072L512 422.88zM288 816a16 16 0 0 0 16 16h416a16 16 0 1 0 0-32H304a16 16 0 0 0-16 16z" fill="#8592A5" /></svg>