<svg class="svg-icon" style="width: 1em;height: 1em;vertical-align: middle;fill: currentColor;overflow: hidden;" viewBox="0 0 1024 1024" version="1.1" xmlns="http://www.w3.org/2000/svg"><path d="M512.055964 734.413788m-52.620148 0a52.620148 52.620148 0 1 0 105.240296 0 52.620148 52.620148 0 1 0-105.240296 0Z" fill="#FF517F" /><path d="M510.65276 631.629099a43.850123 43.850123 0 0 1-43.499322-44.200924l2.631007-350.800984A43.850123 43.850123 0 0 1 513.283768 193.127869a43.674723 43.674723 0 0 1 43.499322 44.200924l-2.631008 350.800984A43.850123 43.850123 0 0 1 510.65276 631.629099z" fill="#FF517F" /><path d="M512.055964 1024A511.994036 511.994036 0 1 1 874.08258 149.979348a511.994036 511.994036 0 0 1-362.026616 874.020652z m0-936.112426a424.29379 424.29379 0 1 0 300.110242 124.008148A423.942989 423.942989 0 0 0 512.055964 87.887574z" fill="#FF517F" /></svg>