<svg class="svg-icon" style="width: 1em;height: 1em;vertical-align: middle;fill: currentColor;overflow: hidden;" viewBox="0 0 1024 1024" version="1.1" xmlns="http://www.w3.org/2000/svg"><path d="M546.785136 31.069853a53.136091 53.136091 0 0 1 55.128694 26.715646L1025.821756 792.760957c24.501642 42.508873-6.346811 104.205778-55.423895 111.14299L119.851405 1023.386352c-49.077084 6.937212-79.704136-46.198879-55.054894-95.571164L491.435041 73.283525a74.759528 74.759528 0 0 1 55.350095-42.213672z" fill="#FF5B5B" /><path d="M557.190954 30.553252H563.980565c1.697403 0 3.321006 0.590401 4.944609 0.959402h1.107002a29.520051 29.520051 0 0 1 3.616206 1.107002l1.549803 0.590401 3.025805 1.328402a23.17324 23.17324 0 0 1 2.730605 1.328402l-56.088096-29.52005-1.918804-0.959402h-0.885601l-2.952005-1.254602-1.623603-1.033202-3.542406-1.107002h-0.885602c-1.623603-0.442801-3.247206-0.738001-4.944608-1.033201h-1.328402a32.472056 32.472056 0 0 0-3.763807 0h-7.011012l-5.166009 0.4428a63.246708 63.246708 0 0 0-7.380012 1.549803h-1.328403c-2.287804 0.664201-4.575608 1.476003-6.863411 2.361604l-1.254603 0.590401-2.287803 0.959402-4.059007 2.140203-0.811802 0.442801c-1.845003 1.033202-3.616206 2.140204-5.387409 3.321006a6.420611 6.420611 0 0 1-0.811801 0.664201l-4.280408 3.394806c-0.811801 0.664201-1.697403 1.254602-2.435404 1.918803l-0.664201 0.664201c-0.959402 0.885602-1.918803 1.918803-2.878205 2.952005a33.505257 33.505257 0 0 0-2.804405 2.804405l-0.664201 0.811801c-0.885602 1.033202-1.697403 2.214004-2.583004 3.247206s-1.623603 1.992603-2.361604 3.099605l-0.738002 1.107002c-0.959402 1.402202-1.771203 2.952005-2.656804 4.428008s-1.328402 1.992603-1.918803 3.099605-0.885602 1.549803-1.254603 2.361604L8.708415 897.261936a84.722545 84.722545 0 0 0-3.542406 8.118014 2.730605 2.730605 0 0 1 0 0.811801l-0.885602 2.804405-0.885601 2.730605c0 1.402202-0.664201 2.730605-0.959402 4.059007s-0.442801 1.697403-0.590401 2.509204-0.516601 3.099605-0.738001 4.649408 0 1.254602 0 1.845003q0 3.321006-0.442801 6.420611v8.487015a33.357657 33.357657 0 0 0 0.442801 3.911406l0.442801 2.435405c0 1.180802 0.442801 2.361604 0.738001 3.542406l0.664201 2.435404c0 1.107002 0.664201 2.140204 1.033202 3.247205a15.350426 15.350426 0 0 0 0.885601 2.361604c0.369001 1.033202 0.811801 2.066404 1.254602 3.025806s0.664201 1.549803 1.033202 2.361604l1.549803 2.804404c0.442801 0.738001 0.811801 1.476003 1.254602 2.140204s1.180802 1.845003 1.845003 2.730605a18.302431 18.302431 0 0 0 1.402203 1.918803c0.664201 0.885602 1.402202 1.697403 2.066403 2.509204s1.033202 1.254602 1.549803 1.771203l2.435404 2.361604 1.623603 1.549803 2.878205 2.287804 1.476002 1.107002a52.102889 52.102889 0 0 0 4.797008 2.952005l56.088096 30.479452a50.331686 50.331686 0 0 1-4.723208-2.878205l-1.476002-1.180802-2.952005-2.287804-1.623603-1.476002c-0.811801-0.811801-1.623603-1.549803-2.361604-2.361604s-1.033202-1.180802-1.549803-1.771203a22.140038 22.140038 0 0 1-2.066403-2.509205l-1.476003-1.992603-1.771203-2.656805-1.623603-2.214003c-0.516601-0.959402-1.033202-1.918803-1.476002-2.878205l-1.107002-2.287804c-0.442801-0.959402-0.885602-1.992603-1.254602-3.025805l-0.885602-2.435405c0-1.033202-0.664201-2.140204-1.033201-3.247205l-0.664202-2.435404c0-1.107002-0.516601-2.287804-0.738001-3.468606l-0.442801-2.361604-0.4428-3.911407v-2.214004-5.092209-1.180802q0-3.247206 0.4428-6.420611v-1.845003c0-0.590401 0.442801-3.099605 0.738002-4.649408s0-1.697403 0.590401-2.509204a40.88527 40.88527 0 0 1 1.033201-4.059007c0-0.885602 0.590401-1.845003 0.885602-2.730605a35.05506 35.05506 0 0 1 1.254602-3.616206 76.604531 76.604531 0 0 1 3.468606-8.118014L491.435041 73.283525c0.959402-1.918803 2.066404-3.690006 3.173406-5.535009l2.656804-4.354207c1.033202-1.476003 2.066404-2.804405 3.173406-4.206608s1.623603-2.214004 2.509204-3.247205 2.287804-2.435404 3.468606-3.690007 1.918803-1.992603 2.952005-2.952005 1.992603-1.697403 3.025805-2.509204 2.804405-2.361604 4.280408-3.394806 4.059007-2.804405 6.19921-4.059007l1.107002-0.4428c2.066404-1.107002 4.132807-2.140204 6.273011-3.025806l1.107002-0.590401a68.265117 68.265117 0 0 1 6.863411-2.361604h1.254603c2.435404-0.590401 4.870808-1.107002 7.380012-1.476002s3.394806 0 5.166009-0.442801h5.239809z" fill="#D83A3A" /><path d="M605.161036 275.126871a16.457428 16.457428 0 0 1 2.656805 0l1.328402 0.369001a16.974029 16.974029 0 0 1 2.509204 0.885601l1.476003 0.664201-12.767422-6.937212h-1.476003a14.760025 14.760025 0 0 0-2.509204-0.885601H595.124219a16.457428 16.457428 0 0 0-2.656805 0h-1.254602a18.745232 18.745232 0 0 0-4.059007 0L507.744869 279.407278a25.239643 25.239643 0 0 0-4.649408 1.180802l-1.254602 0.442801-1.328402 0.516601-1.623603 0.959402a12.619822 12.619822 0 0 0-1.697403 0.959401l-0.738001 0.442801a30.405652 30.405652 0 0 0-3.025805 2.361604l-2.435404 2.509204a12.619822 12.619822 0 0 0-0.811802 1.033202l-0.738001 0.885602-0.664201 0.885601A28.560649 28.560649 0 0 0 487.080834 295.200505a41.475671 41.475671 0 0 0-1.845003 4.132807v1.328403a28.92965 28.92965 0 0 0-1.107002 4.870808 1.254602 1.254602 0 0 0 0 0.516601 25.608644 25.608644 0 0 0 0 5.313609l9.225016 304.130321a36.309662 36.309662 0 0 0 18.154831 30.848452l12.693621 6.937212a36.309662 36.309662 0 0 1-18.081031-30.848452L495.641648 318.078545a32.103055 32.103055 0 0 1 0-5.31361v-0.5166a38.966467 38.966467 0 0 1 1.180803-4.870809v-0.664201a35.719261 35.719261 0 0 1 2.066403-4.870808 34.83366 34.83366 0 0 1 2.656805-4.059007 10.848619 10.848619 0 0 0 0.738001-0.959402c1.033202-1.180802 2.066404-2.361604 3.247205-3.468606a35.571661 35.571661 0 0 1 3.763807-2.804405l1.623603-0.959401 3.025805-1.476003 1.918803-0.2952a23.837441 23.837441 0 0 1 4.649408-1.180802l79.408936-11.21762a25.165843 25.165843 0 0 1 4.059007 0zM598.888025 735.78726l-12.693621-6.937212-0.811802-0.369001a20.147434 20.147434 0 0 0-4.059007-1.476002h-0.590401a34.317059 34.317059 0 0 0-6.420611-1.033202 136.235033 136.235033 0 0 0-27.675047 1.623603 150.552258 150.552258 0 0 0-27.675048 6.12541c-1.549803 0.590401-3.025805 1.180802-4.428007 1.845003a38.080865 38.080865 0 0 0-5.313609 2.435404l-2.287804 1.771203-0.738001 0.590401a15.719427 15.719427 0 0 0-2.214004 2.214004 2.878205 2.878205 0 0 0-0.590401 0.738001L501.840859 745.381276l-0.885601 1.402202-0.590401 0.959402v0.442801a16.900229 16.900229 0 0 0-0.738002 1.697403 17.41683 17.41683 0 0 0-0.885601 2.066403v0.369001a26.346645 26.346645 0 0 0-0.738001 2.583004 11.217619 11.217619 0 0 0-0.442801 1.476003 46.272679 46.272679 0 0 0-1.033202 5.018408A208.485357 208.485357 0 0 0 494.460846 789.661352a194.537133 194.537133 0 0 0 1.476003 27.453647 26.641846 26.641846 0 0 0 6.937212 15.645627 19.557033 19.557033 0 0 0 4.132807 3.099605l12.767422 6.937212a19.999834 19.999834 0 0 1-4.206607-3.099606 26.789446 26.789446 0 0 1-6.863412-15.645626 183.909915 183.909915 0 0 1-1.476003-27.453647 207.747356 207.747356 0 0 1 1.992604-28.339249 46.64168 46.64168 0 0 1 0.959401-5.018408l0.442801-1.476003a27.748848 27.748848 0 0 1 0.959402-2.952005 17.63823 17.63823 0 0 1 0.959401-2.066404 19.114233 19.114233 0 0 1 1.033202-2.140203 4.206607 4.206607 0 0 1 0.590401-0.959402 20.664035 20.664035 0 0 1 1.992604-2.952005 28.560649 28.560649 0 0 1 2.952005-3.025805l0.738001-0.590401c0.811801-0.664201 1.623603-1.328402 2.583004-1.992603a36.900063 36.900063 0 0 1 4.797009-2.730605c1.476003-0.664201 2.952005-1.328402 4.575607-1.918803a145.607649 145.607649 0 0 1 27.748848-6.125411 130.183423 130.183423 0 0 1 27.601247-1.623603 34.169458 34.169458 0 0 1 6.494411 1.033202h0.590401a23.24704 23.24704 0 0 1 4.649408 2.066404z" fill="#DDDDDD" /><path d="M599.921227 275.126871L520.512291 286.34449a30.848453 30.848453 0 0 0-24.870643 31.734055l10.479618 304.351721a34.390859 34.390859 0 0 0 39.114067 34.390858l28.560649-4.059007a48.634283 48.634283 0 0 0 39.335468-45.460877l11.512819-307.451327a22.140038 22.140038 0 0 0-24.723042-24.723042zM602.725632 738.517864a24.575442 24.575442 0 0 0-15.719427-5.83021 130.183423 130.183423 0 0 0-27.601247 1.623603 145.607649 145.607649 0 0 0-27.748848 6.125411A31.069853 31.069853 0 0 0 509.220872 768.259315a207.747356 207.747356 0 0 0-1.549803 28.117848 183.909915 183.909915 0 0 0 1.476003 27.453647 26.789446 26.789446 0 0 0 6.863411 15.645627 24.132641 24.132641 0 0 0 15.645627 6.125411 142.655644 142.655644 0 0 0 27.675048-1.697403 143.393645 143.393645 0 0 0 27.675047-6.125411 32.988656 32.988656 0 0 0 15.645627-10.479618 36.014462 36.014462 0 0 0 6.937212-17.56443 250.551429 250.551429 0 0 0 0-55.645295 25.977644 25.977644 0 0 0-6.863412-15.571827z" fill="#FFFFFF" /></svg>